<mxfile host="app.diagrams.net" modified="2024-06-03T09:03:46.997Z" agent="Mozilla/5.0 (Windows NT 10.0; Win64; x64) AppleWebKit/537.36 (KHTML, like Gecko) Chrome/125.0.0.0 Safari/537.36 Edg/125.0.0.0" etag="wyI14_L9rjeogMr90WQK" version="24.4.13" type="github">
  <diagram name="第 1 页" id="a3eJmdtJoLTEkWPNlmqi">
    <mxGraphModel dx="1131" dy="653" grid="1" gridSize="10" guides="1" tooltips="1" connect="1" arrows="1" fold="1" page="1" pageScale="1" pageWidth="827" pageHeight="1169" math="0" shadow="0">
      <root>
        <mxCell id="0" />
        <mxCell id="1" parent="0" />
        <mxCell id="f-J0kJEbSUdan7i2a6kJ-1" value="" style="shape=image;verticalLabelPosition=bottom;labelBackgroundColor=default;verticalAlign=top;aspect=fixed;imageAspect=0;image=data:image/png,iVBORw0KGgoAAAANSUhEUgAAAosAAAAcCAIAAACGdGKSAAAMQklEQVR4Ae1dO04cTRD+E5/DEhCYBF/FiQ+AhXBA7iN4sTARCTewBNbKAXLszMEKFhxtQoiwWclXmF9V3fXqxzCwsw9wWUjb24/q7q+76quqGcx/jf9zBBwBR8ARcAQcgdVD4L/VW5KvyBFwBBwBR8ARcAQaZ2i/BI6AI+AIOAKOwCoi4Ay9iqfia3IEHAFHwBFwBJyh/Q44Ao6AI+AIOAKriIAz9Cqeiq/JEXAEHAFHwBFwhvY74Ag4Ao6AI+AIrCICztCreCq+JkfAEXAEHAFHwBna74Aj4Ag4Ao6AI7CKCDhDr+Kp+JocgSeHwN3p7vvTqSx79Onl/li+eskRmDsC46P1T+cdZknvaochy+riDG2Q/3u6N17bwp/PN6Zl7l/uhnsbu8O72jy/hzubr3eGygLWej7J+unJ7uu27a/Upm6Hv9a2fmk2mtfyptfbj58ILvP28O+81mbk3p3uvkyN4/Tbu1eGs82IJXxZonY/YrcXB683NvGnxSw8Qm6nIZOPb4Yvws/xREb8Gb3leij8+CltTaNaP17qhgeXb8++v3gzfHtWNYclieOj9fS+/TymXSRLbaDz0agkZsXqnhhDL8jojD6P17oz9OVkbWsy82E/jqFBjQ+ulnKp7lnww9bkDF3E64kw9O3X9+u7326zLUD9A+zgM9buDJquFT1p2dVg8/WgS3SJ6/p5PCSKBaoWpgQOtqxM+0BO/f7lD31//Ofdlw/Dt2cjM28Haef7r5KcDSzpwyjcSqBqKkdho08vi5e2w1yL7OIMXUJ7BRm6tMymaZ4LQ1e29+jqGmc8WuByBq4MQ4M5q+YPc+PIaEFs/e5rx1DIGZpx48KiGLqa8NA8h1FykaEnH9/0Qs/N7dl3dA6sZwBwVFcIjQV9BwnkZ8T4Xr4ivi33lvFfeqFPhoYNr8cfk0AA9aYm/WgKXezYdJ8aqwxVyEJvjdf2rtltB06N9RTOgnWbnEJCEgLi0CEm/S4nMBZi3zCKhtBxFBlaTTEehCSOSODZqQmu1PU2LbVDsjGo4sVwL0ttgf8bKnWWW5Jg1LqxeXhBO6h/YrRKQ8Stxix6NjXsAvLPtj8slWqosHfyuz5nEKJj/fPDjc04RDaSZfOkibcGA5NtXg1IVFwB3jd1A22SQw4Xb8hIjslcA33ccnxy4lmWW5rCZcAOXacwU2MWnW9UNlEJZzMkpn8C4d3wg5t4aXG47i+7a24GkFRnXdNTYx67FChDwrBYHyaqhNd2Ezwj7/qZaTdsF64uqZK+6kr1tIIHhIoMXdCLiGeurWI9ZHatiTAQUr5JABrlNUCZEn3WYujLH9KHR85UyBm6bZ1wOTWzNE1z+UMn4UO6W5IBYW2tfudMy+9vcH8MPfrENtE+lBofMXYm6zX9ts/OdeERQnGPweikj9bAmBJbo+lBexcs7+ebBk3n9vAvNIVuwZjGIWgdbE5bjDiv4nLCBk6mCK0gzVhYqMbZacjNYOveJ4KR9qLygF5ZdQXdszUwDehqqm+85ryAClzoPz054EfgZuoW+UXbkU8Zayyz5mJzadCHDBmCg8QM5swytK1BNzEhDHtAcriRm8PZmWsgV6W4IRio2cset26tT1G+tE1jbpcWVVwJVpoh0i3SXriEps/0esDPpwEc3gtc1DW6qzkI6Pqkj5bvMXMQ+rBlkMWVSs9Yuxu4pSUvFumZHGWjegGhrnoBvWva3TQNSKZZLPTFM5UulinVk+YXKkIFFj+eyEPfJJ8s0rqX7LwyDq5Tls4phdfiNERRsDz9TB1ktjqXPKmOJGOomVgY7tp/oT+G1msr5BxCcwlKbOmYcCjqcHD8eX6wMmCV2LqxgQ6hM/hXllO5nmSIEaca88mSQ20iDSvBuinWz42dEQhfElWEr4ZK+2BoS5PZEmKFpk8oJ4xIw5IFU3XtU9uILOrNto82RVs0Hk5jmZi5gHmwUk7VHpAcrj1HfUZQFt7KtmQHQrO5QnBLo3Nme6opKpe2UWOjn8f0mS0jVtCFT9utstiVqL56OJQlpLa4hSHBWrHP3TT35bGrKq+WEIt2wbGyAhRvhxfJR8A1QQLX04RyAajGfLJkHp7533COD9NuZOiCh52oea5TWQ3d/7hm1osQo1vnVfalukklnl1L/qNpkHSLae0QpMY0MjC0EDY8SM64UM3aqVhjaBiceeGl174CQ0MkHdPvP4/VA/W4htLATstbXKceGRpTJZzNVgevs98v1et2GGpT9rueZtFglHQYNEolx7D8YIa2SljSYTBelBUfG/OdWARcL0gw/SXK1/tR5UQVk6/BQZ4xhs5kyvTQxCm4TROXI0kX3iltkSZyVQn6B5/j/JCDY25PpWFsYZYUgwDwVAbn4NDs7O5BWMDSMBroh6HhyVZ4PgKHWEyQWOLESxhZGe4DtVpzLwxdu7SQZyZ278jQdgoGtEGyF7o13UCP9P2MK09mV7KkGNRcYog5M3QNKN4Oax8zMdeERSdfm2YZ2g1LUVeaw1lRLtY+yhuF1XfWi9TFlxODUpGh06O0QwI9tzxdDq90wTsGIYaW4TbDLPUPKLUxdCQOcRNLRAtr0G+HyWrVKkoDVXMsPosYGpMPDJmKoRFNfsdEOdRgT0XPe4yhCeHOOix2k4ZmOowWjb1mlhz6ZyYg2nfuT2JbPxNV1IEsjptnDA2xtQSs2dRh3WkOLVlw6+awkYLdi4NCwi2TlsQKIh6HT092Dy9+D3cOrmCgSjZk/nWWMpHDteeYX4MwJ/SnZyhxFXYgVEKNcB4Rnkrk4Eg1RRIaRsFNwpH5RNxRCpbUpd66s0qU3ZEerssiiEvFjChUsoJzVy6Ays+S5a4Axdth7aswtMI8rkkuQKxYgHYzHFBQ6pbcXtMNv3TXCxT7sBgaZiieaSBdij7zVWGNIlFJKWNL8rUyvrVaCTf9kGjS+6ZoRTqDBPVqWPFdtm5ZbpG5hFJfMTQ4I/SAKoAY2RcsJr0FFnyf0M0wN94S86g/ui2Z5lvjEgErVnbOcoNVklADRWY6rPuE+IOCJLLOYpTDotBkp5VtB2xUEd1tdrRxWJmhYVQlC12aDFxpzWehjxEC5qPQp/DMWxma0lyFOiTXq0FpwWb7OBQcBRtP8Gp3Dg53gJWBp0+Ge2lqAa+TYgW25hwZB+dJ1UenKmFinDA38XK1aI/Qp+iQ1acoX1od4eEVknCc5so/QVQe6FdjaENIOJaj9haGRoUVl1qtojUQUc66DPn3tFv2HoNpcogLmm76dteLECjn2o3iUvfazJG/KYYBqKI32x2/2QS4psMsWg3HTSxQkFWoKjI03DRDEzQQLmcmX68QyvnT8XucS5K+1M++GDr6YuHF7KOR9k0Q1pD93h+f7ydEjlnud1/Pk5fxajocgoyYoFP2NBgaStzxm2LIo2UvuxbxSD1I4ylASGwaXKZ+PRhoaaUDjRY2jkqcAOokn4EaY7KLFDh5BTS0qpDRvmtd86BlkqjGlFIjJwAVOFTuDuF98jiFqt8s8KXK0akF69mSMu7REio6DbQeTGvLLpR89TgchYSVo29RiMjT376Q6/H5Rti0nT7pQDX5iRxqJScMuI3vAL9slXB5QvZWGufSWdSv02l60xI8+asRFX2FagytI/7tIbzsrXdBZZYNhVZb1pIAK5pOPJ38fR+Yh/euVC94LQLv09due2NV9ntD3g99uF4AfmYUaTeepJ7FGBBsNb/LBOwY/7sSKkS2DqnjUJm8daVeIktfmQ4viHT8zXg9hZmoGCiHxRd/2wqakKRxLzk9h+fZnPclSav22R9Dr9rO2tbDnN3Wydscga4IAEHqGBoumMqydBXzVPuhP62SFrQPqC+G3dRhLp+u3XOBdRah9QTMLFLNWJ2sNQ21L61OZ23Q4uudoRePuc/43BAweWN6y4xj4ue229J+0AQnz6Rag56SkJ7qnKF7ArI3MZhGzbLQvYmPgmAWetJ6r2zoXPAp7x238A7O0AuHfL4TmjSXfhfapLzmswablKb/nKHyVHs+S1iaVJWehXzsP0XPAfT0rxEs7S9nOEMvTQvyidF1Kz88zjvPXON/OWNmCF2AI+AIOAKOgCPgCHRB4N+Mobsg430cAUfAEXAEHIFlIuAMvUz0fW5HwBFwBBwBR6CGgDN0DRmvdwQcAUfAEXAElomAM/Qy0fe5HQFHwBFwBByBGgL/AyCFML3h12uRAAAAAElFTkSuQmCC;" vertex="1" parent="1">
          <mxGeometry x="80" y="320" width="651" height="28" as="geometry" />
        </mxCell>
        <mxCell id="f-J0kJEbSUdan7i2a6kJ-3" value="" style="shape=crossbar;whiteSpace=wrap;html=1;rounded=1;fillColor=#f8cecc;strokeColor=#FF3333;" vertex="1" parent="1">
          <mxGeometry x="130" y="348" width="330" height="20" as="geometry" />
        </mxCell>
        <mxCell id="f-J0kJEbSUdan7i2a6kJ-4" value="" style="shape=crossbar;whiteSpace=wrap;html=1;rounded=1;strokeColor=#67AB9F;" vertex="1" parent="1">
          <mxGeometry x="460" y="348" width="130" height="20" as="geometry" />
        </mxCell>
        <mxCell id="f-J0kJEbSUdan7i2a6kJ-5" value="调用模板成员函数bit_cast_view" style="text;html=1;align=center;verticalAlign=middle;whiteSpace=wrap;rounded=0;" vertex="1" parent="1">
          <mxGeometry x="200" y="368" width="110" height="30" as="geometry" />
        </mxCell>
        <mxCell id="f-J0kJEbSUdan7i2a6kJ-6" value="调用模板成员函数&lt;div&gt;select&lt;/div&gt;" style="text;html=1;align=center;verticalAlign=middle;whiteSpace=wrap;rounded=0;" vertex="1" parent="1">
          <mxGeometry x="470" y="368" width="110" height="30" as="geometry" />
        </mxCell>
      </root>
    </mxGraphModel>
  </diagram>
</mxfile>
